HIERARCHY
ROOT Hips
{
  OFFSET 5.72205e-005 65.662 3.42586
  CHANNELS 6 Xposition Yposition Zposition Zrotation Xrotation Yrotation
  JOINT Chest
  {
    OFFSET 0 8.7983 -4.7612
    CHANNELS 3 Zrotation Xrotation Yrotation
    JOINT Chest2
    {
      OFFSET 0 8.0291 0.4195
      CHANNELS 3 Zrotation Xrotation Yrotation
      JOINT Chest3
      {
        OFFSET 0 9.9351 -2.2114
        CHANNELS 3 Zrotation Xrotation Yrotation
        JOINT Neck
        {
          OFFSET 0 22.3885 -0.4656
          CHANNELS 3 Zrotation Xrotation Yrotation
          JOINT Head
          {
            OFFSET -0.0001 12.643 3.4389
            CHANNELS 3 Zrotation Xrotation Yrotation
            End Site
            {
              OFFSET 0.0001 17.6655 0.5274
            }
          }
        }
        JOINT LeftCollar
        {
          OFFSET 2.2603 21.606 7.4023
          CHANNELS 3 Zrotation Xrotation Yrotation
          JOINT LeftShoulder
          {
            OFFSET 13.5163 -1.1332 -5.0146
            CHANNELS 3 Zrotation Xrotation Yrotation
            JOINT LeftElbow
            {
              OFFSET -0.0995 -28.05 -0.2431
              CHANNELS 3 Zrotation Xrotation Yrotation
              JOINT LeftWrist
              {
                OFFSET 0.0679 -23.3996 -0.1402
                CHANNELS 3 Zrotation Xrotation Yrotation
                JOINT LeftFinger1
                {
                  OFFSET 0.7932 -9.069 2.5189
                  CHANNELS 3 Zrotation Xrotation Yrotation
                  JOINT LeftFinger11
                  {
                    OFFSET -0.8272 -3.3923 0.5977
                    CHANNELS 3 Zrotation Xrotation Yrotation
                    JOINT LeftFinger12
                    {
                      OFFSET -0.5649 -2.3158 0.4082
                      CHANNELS 3 Zrotation Xrotation Yrotation
                      End Site
                      {
                        OFFSET -0.4919 -1.6479 0.2673
                      }
                    }
                  }
                }
                JOINT LeftFinger2
                {
                  OFFSET 0.9159 -9.2044 0.2193
                  CHANNELS 3 Zrotation Xrotation Yrotation
                  JOINT LeftFinger21
                  {
                    OFFSET 0.0117 -4.1944 -0.0248
                    CHANNELS 3 Zrotation Xrotation Yrotation
                    JOINT LeftFinger22
                    {
                      OFFSET 0.0071 -2.3249 -0.0142
                      CHANNELS 3 Zrotation Xrotation Yrotation
                      End Site
                      {
                        OFFSET -0.1475 -2.0882 0.0028
                      }
                    }
                  }
                }
                JOINT LeftFinger3
                {
                  OFFSET 0.6113 -8.7231 -2.0637
                  CHANNELS 3 Zrotation Xrotation Yrotation
                  JOINT LeftFinger31
                  {
                    OFFSET -0.1927 -3.8059 -0.2383
                    CHANNELS 3 Zrotation Xrotation Yrotation
                    JOINT LeftFinger32
                    {
                      OFFSET -0.1091 -2.1688 -0.1362
                      CHANNELS 3 Zrotation Xrotation Yrotation
                      End Site
                      {
                        OFFSET -0.2358 -1.9176 -0.0906
                      }
                    }
                  }
                }
                JOINT LeftFinger4
                {
                  OFFSET -0.6151 -8.0947 -3.5641
                  CHANNELS 3 Zrotation Xrotation Yrotation
                  JOINT LeftFinger41
                  {
                    OFFSET -0.4882 -2.341 -0.6462
                    CHANNELS 3 Zrotation Xrotation Yrotation
                    JOINT LeftFinger42
                    {
                      OFFSET -0.3575 -1.7167 -0.4742
                      CHANNELS 3 Zrotation Xrotation Yrotation
                      End Site
                      {
                        OFFSET -0.4187 -1.5237 -0.3496
                      }
                    }
                  }
                }
                JOINT LeftFinger0
                {
                  OFFSET -1.42 -1.8761 1.4223
                  CHANNELS 3 Zrotation Xrotation Yrotation
                  JOINT LeftFinger01
                  {
                    OFFSET -1.1471 -3.4929 2.6334
                    CHANNELS 3 Zrotation Xrotation Yrotation
                    JOINT LeftFinger02
                    {
                      OFFSET -0.823 -2.3 1.6571
                      CHANNELS 3 Zrotation Xrotation Yrotation
                      End Site
                      {
                        OFFSET -0.5822 -1.6914 1.1582
                      }
                    }
                  }
                }
              }
            }
          }
        }
        JOINT RightCollar
        {
          OFFSET -2.2603 21.606 7.4023
          CHANNELS 3 Zrotation Xrotation Yrotation
          JOINT RightShoulder
          {
            OFFSET -13.5187 -1.1334 -5.0155
            CHANNELS 3 Zrotation Xrotation Yrotation
            JOINT RightElbow
            {
              OFFSET 0.0994 -28.0499 -0.2431
              CHANNELS 3 Zrotation Xrotation Yrotation
              JOINT RightWrist
              {
                OFFSET -0.0679 -23.3996 -0.1402
                CHANNELS 3 Zrotation Xrotation Yrotation
                JOINT RightFinger1
                {
                  OFFSET -0.7932 -9.0691 2.5189
                  CHANNELS 3 Zrotation Xrotation Yrotation
                  JOINT RightFinger11
                  {
                    OFFSET 0.8272 -3.3923 0.5977
                    CHANNELS 3 Zrotation Xrotation Yrotation
                    JOINT RightFinger12
                    {
                      OFFSET 0.565 -2.3158 0.4082
                      CHANNELS 3 Zrotation Xrotation Yrotation
                      End Site
                      {
                        OFFSET 0.4919 -1.6479 0.2673
                      }
                    }
                  }
                }
                JOINT RightFinger2
                {
                  OFFSET -0.916 -9.2044 0.2193
                  CHANNELS 3 Zrotation Xrotation Yrotation
                  JOINT RightFinger21
                  {
                    OFFSET -0.0117 -4.1944 -0.0248
                    CHANNELS 3 Zrotation Xrotation Yrotation
                    JOINT RightFinger22
                    {
                      OFFSET -0.0071 -2.3249 -0.0142
                      CHANNELS 3 Zrotation Xrotation Yrotation
                      End Site
                      {
                        OFFSET 0.1475 -2.0882 0.0028
                      }
                    }
                  }
                }
                JOINT RightFinger3
                {
                  OFFSET -0.6113 -8.7231 -2.0637
                  CHANNELS 3 Zrotation Xrotation Yrotation
                  JOINT RightFinger31
                  {
                    OFFSET 0.1927 -3.8059 -0.2383
                    CHANNELS 3 Zrotation Xrotation Yrotation
                    JOINT RightFinger32
                    {
                      OFFSET 0.1091 -2.1688 -0.1362
                      CHANNELS 3 Zrotation Xrotation Yrotation
                      End Site
                      {
                        OFFSET 0.2358 -1.9176 -0.0906
                      }
                    }
                  }
                }
                JOINT RightFinger4
                {
                  OFFSET 0.6151 -8.0947 -3.564
                  CHANNELS 3 Zrotation Xrotation Yrotation
                  JOINT RightFinger41
                  {
                    OFFSET 0.4882 -2.341 -0.6462
                    CHANNELS 3 Zrotation Xrotation Yrotation
                    JOINT RightFinger42
                    {
                      OFFSET 0.3574 -1.7166 -0.4742
                      CHANNELS 3 Zrotation Xrotation Yrotation
                      End Site
                      {
                        OFFSET 0.4187 -1.5237 -0.3496
                      }
                    }
                  }
                }
                JOINT RightFinger0
                {
                  OFFSET 1.4199 -1.8761 1.4221
                  CHANNELS 3 Zrotation Xrotation Yrotation
                  JOINT RightFinger01
                  {
                    OFFSET 1.1472 -3.4929 2.6336
                    CHANNELS 3 Zrotation Xrotation Yrotation
                    JOINT RightFinger02
                    {
                      OFFSET 0.8229 -2.3 1.6571
                      CHANNELS 3 Zrotation Xrotation Yrotation
                      End Site
                      {
                        OFFSET 0.5822 -1.6914 1.1582
                      }
                    }
                  }
                }
              }
            }
          }
        }
      }
    }
  }
  JOINT RightHip
  {
    OFFSET -9.412 3.9771 -0.7758
    CHANNELS 3 Zrotation Xrotation Yrotation
    JOINT RightKnee
    {
      OFFSET -0.7531 -40.938 0
      CHANNELS 3 Zrotation Xrotation Yrotation
      JOINT RightAnkle
      {
        OFFSET 0 -40.1986 0
        CHANNELS 3 Zrotation Xrotation Yrotation
        JOINT RightToe
        {
          OFFSET 0 -4.4182 9.239
          CHANNELS 3 Zrotation Xrotation Yrotation
          End Site
          {
            OFFSET 0 0 6.1981
          }
        }
      }
    }
  }
  JOINT LeftHip
  {
    OFFSET 9.4119 3.9773 -0.7758
    CHANNELS 3 Zrotation Xrotation Yrotation
    JOINT LeftKnee
    {
      OFFSET 0.7532 -40.9383 0
      CHANNELS 3 Zrotation Xrotation Yrotation
      JOINT LeftAnkle
      {
        OFFSET 0 -40.1986 0
        CHANNELS 3 Zrotation Xrotation Yrotation
        JOINT LeftToe
        {
          OFFSET 0 -4.4182 9.239
          CHANNELS 3 Zrotation Xrotation Yrotation
          End Site
          {
            OFFSET 0 0 6.1981
          }
        }
      }
    }
  }
}
MOTION
Frames:	5
Frame Time:	0.0333333
-5.56716 16.8717 -8.09851 -9.38115e-008 -11.3099 1.1348e-006 -0.0551623 4.06793 3.07696 -0.33105 8.12698 6.18129 -0.331052 8.127 6.18131 -12.7901 -20.0796 -4.45855 -13.3218 -25.9018 7.14591 27.5763 10.9882 -89.7447 56.0646 0.500921 33.0706 7.58619 -72.5011 71.1925 -22.1469 7.39584 -39.8541 1.15865e-031 2.78299e-015 -2.38542e-015 1.39585e-005 2.73344e-006 3.64446e-006 3.18055e-015 1.19271e-015 7.95139e-016 1.15865e-031 2.78299e-015 -2.38542e-015 -0.0127785 0.00232615 8.71578e-005 1.27222e-014 1.98785e-015 -6.36111e-015 1.15865e-031 2.78299e-015 -2.38542e-015 -0.0160229 0.00298961 0.000866274 3.18055e-015 1.19271e-015 7.15625e-015 1.15865e-031 2.78299e-015 -2.38542e-015 -0.0126056 0.0031277 0.00283906 -9.80667e-006 2.99787e-006 1.48105e-006 1.15865e-031 2.78299e-015 -2.38542e-015 1.39585e-005 2.73344e-006 3.64446e-006 3.18055e-015 1.19271e-015 7.95139e-016 5.91326 -16.0776 21.5086 -21.9606 -13.1272 -14.0748 -11.4942 -37.293 -5.10026 56.3148 20.9532 12.9216 2.34914e-006 -2.21006e-006 1.18919e-007 -6.36111e-015 -2.3059e-014 -1.11319e-014 9.27837e-006 -2.40692e-005 1.60487e-005 2.34914e-006 -2.21006e-006 1.18919e-007 0.0129953 0.00229398 -7.90924e-005 -1.54539e-006 1.52563e-005 3.44663e-006 2.34914e-006 -2.21006e-006 1.18919e-007 0.0163603 0.00301387 -0.000869761 -1.17895e-006 1.41874e-005 3.90068e-006 2.34914e-006 -2.21006e-006 1.18919e-007 0.0145483 0.0036608 -0.0032377 3.18055e-015 -1.59028e-015 -1.59028e-015 2.34914e-006 -2.21006e-006 1.18919e-007 -6.36111e-015 -2.3059e-014 -1.11319e-014 9.27837e-006 -2.40692e-005 1.60487e-005 -84.2808 -37.2164 -102.596 -161.429 53.5035 149.564 10.1115 -31.4704 17.4385 3.77829e-006 -3.55968e-006 -5.28405e-006 29.6814 -0.379197 -27.6778 -170.42 69.8347 -176.303 12.5657 37.3229 -41.5676 2.34574e-006 -2.24314e-007 3.22136e-007 
-5.57102 17.0053 -8.30115 -2.94713e-007 -10.1184 -3.79937e-007 -0.100338 3.703 3.08318 -0.401858 7.39517 6.19228 -0.401861 7.39519 6.1923 -12.7743 -19.8876 -4.41215 -13.353 -25.7276 7.06051 27.8488 11.9914 -90.1588 55.9466 0.477629 33.048 7.58766 -72.5086 71.1959 -22.0836 7.24932 -40.4113 1.04793e-005 8.5495e-006 -3.24959e-007 -1.04793e-005 -8.5495e-006 3.24957e-007 1.04793e-005 8.5495e-006 -3.24959e-007 1.04793e-005 8.5495e-006 -3.24959e-007 -0.0128378 0.00232238 8.57097e-005 9.62047e-007 4.31432e-006 -3.13978e-006 1.04793e-005 8.5495e-006 -3.24959e-007 -0.0159855 0.00298317 0.00086477 6.36111e-015 -9.54166e-015 2.38542e-015 1.04793e-005 8.5495e-006 -3.24959e-007 -0.012644 0.003126 0.00284733 3.18055e-015 -1.19271e-015 3.97569e-015 1.04793e-005 8.5495e-006 -3.24959e-007 -1.04793e-005 -8.5495e-006 3.24957e-007 1.04793e-005 8.5495e-006 -3.24959e-007 6.38575 -14.9308 21.455 -21.9606 -13.1273 -14.0747 -11.4942 -37.293 -5.10027 55.9392 20.7115 13.5325 1.59028e-015 -1.19271e-015 6.36111e-015 -6.32359e-006 2.6685e-005 -7.364e-006 6.3236e-006 -2.6685e-005 7.364e-006 1.59028e-015 -1.19271e-015 6.36111e-015 0.0129007 0.00231404 -9.127e-005 -1.59028e-015 -9.14409e-015 -3.18055e-015 1.59028e-015 -1.19271e-015 6.36111e-015 0.0163347 0.00305863 -0.000879197 -1.59028e-015 3.97569e-016 -0 1.59028e-015 -1.19271e-015 6.36111e-015 0.0145727 0.00370084 -0.00327255 1.09946e-005 -2.38358e-005 1.53989e-005 1.59028e-015 -1.19271e-015 6.36111e-015 -6.32359e-006 2.6685e-005 -7.364e-006 6.3236e-006 -2.6685e-005 7.364e-006 -84.9034 -37.7392 -103.721 -161.34 53.8209 149.529 10.2528 -31.3746 17.1268 3.18055e-015 1.06041e-006 3.18055e-015 28.9988 -1.39005 -27.4626 -170.439 69.7975 -176.277 11.8206 37.7718 -41.1272 -2.66982e-007 3.18055e-015 -3.32934e-007 
-5.5752 17.1417 -8.50609 -2.58149e-007 -8.92737 -2.17576e-006 -0.145305 3.33842 3.08858 -0.472132 6.66409 6.20143 -0.472135 6.66411 6.20145 -12.7586 -19.6956 -4.36589 -13.384 -25.5534 6.9753 28.1297 12.9922 -90.5792 55.8297 0.450794 33.0254 7.58855 -72.5126 71.1978 -22.0217 7.1022 -40.968 5.06439e-006 1.14199e-005 -8.71467e-006 2.00952e-006 1.05384e-006 -2.00342e-006 3.18055e-015 -6.36111e-015 3.97569e-015 5.06439e-006 1.14199e-005 -8.71467e-006 -0.012824 0.00231248 8.59822e-005 6.36111e-015 7.15625e-015 -4.77083e-015 5.06439e-006 1.14199e-005 -8.71467e-006 -0.0160424 0.0029897 0.000851358 -7.16882e-006 -8.82205e-006 -4.24893e-006 5.06439e-006 1.14199e-005 -8.71467e-006 -0.0126352 0.00312948 0.00283579 1.43452e-031 1.03368e-014 -7.95139e-016 5.06439e-006 1.14199e-005 -8.71467e-006 2.00952e-006 1.05384e-006 -2.00342e-006 3.18055e-015 -6.36111e-015 3.97569e-015 6.8567 -13.7849 21.3919 -21.9606 -13.1273 -14.0748 -11.4942 -37.293 -5.10025 55.5669 20.4662 14.1408 -4.6346e-031 5.56597e-015 4.77083e-015 -4.77083e-015 6.36111e-015 1.59028e-015 -1.65521e-031 1.98785e-015 4.77083e-015 -4.6346e-031 5.56597e-015 4.77083e-015 0.0129949 0.00230735 -8.56264e-005 -0 -8.74653e-015 -0 -4.6346e-031 5.56597e-015 4.77083e-015 0.0163296 0.00300218 -0.00085737 -2.3173e-031 -8.34896e-015 -1.59028e-015 -4.6346e-031 5.56597e-015 4.77083e-015 0.0145679 0.00367259 -0.00325009 1.99192e-006 -3.21515e-005 1.53526e-005 -4.6346e-031 5.56597e-015 4.77083e-015 -4.77083e-015 6.36111e-015 1.59028e-015 -1.65521e-031 1.98785e-015 4.77083e-015 -85.543 -38.252 -104.862 -161.251 54.138 149.492 10.3937 -31.2802 16.8143 -2.41698e-006 -3.0027e-007 -2.27137e-006 28.3172 -2.40387 -27.2603 -170.459 69.7597 -176.252 11.0661 38.2166 -40.6764 7.63517e-006 -3.68978e-007 -3.63393e-006 
-5.5797 17.2811 -8.71326 1.8282e-008 -7.73714 -2.15506e-006 -0.19005 2.97438 3.09318 -0.541881 5.93412 6.20876 -0.541883 5.93413 6.20877 -12.7431 -19.5036 -4.31974 -13.4146 -25.379 6.89029 28.4192 13.9903 -91.0062 55.715 0.417768 33.0027 7.58819 -72.5101 71.1967 -21.9612 6.95455 -41.5243 6.36111e-015 1.07344e-014 -1.59028e-015 4.30356e-031 1.03368e-014 -2.38542e-015 3.18055e-015 6.36111e-015 -7.95139e-016 6.36111e-015 1.07344e-014 -1.59028e-015 -0.0127939 0.00231167 8.19699e-005 -3.18055e-015 -1.19271e-015 -4.77083e-015 6.36111e-015 1.07344e-014 -1.59028e-015 -0.0160894 0.00298832 0.000860353 -6.36111e-015 8.74653e-015 -4.77083e-015 6.36111e-015 1.07344e-014 -1.59028e-015 -0.0126059 0.0031081 0.00282451 -9.64603e-007 -3.45976e-006 3.13957e-006 6.36111e-015 1.07344e-014 -1.59028e-015 4.30356e-031 1.03368e-014 -2.38542e-015 3.18055e-015 6.36111e-015 -7.95139e-016 7.3264 -12.6405 21.3195 -21.9606 -13.1273 -14.0748 -11.4942 -37.293 -5.10026 55.1981 20.2172 14.7462 -4.00493e-006 -1.44423e-006 6.00871e-007 1.59028e-015 1.07344e-014 3.18055e-015 4.77083e-015 9.93923e-015 1.59028e-015 -4.00493e-006 -1.44423e-006 6.00871e-007 0.0129572 0.00232867 -9.4894e-005 1.59028e-015 1.39149e-014 1.59028e-015 -4.00493e-006 -1.44423e-006 6.00871e-007 0.0163022 0.00300852 -0.000872042 -1.11319e-014 -2.78299e-015 -9.54166e-015 -4.00493e-006 -1.44423e-006 6.00871e-007 0.0145983 0.0036709 -0.00327598 -6.36111e-015 -2.50469e-014 -6.36111e-015 -4.00493e-006 -1.44423e-006 6.00871e-007 1.59028e-015 1.07344e-014 3.18055e-015 4.77083e-015 9.93923e-015 1.59028e-015 -86.2002 -38.7539 -106.02 -161.16 54.4543 149.453 10.534 -31.1872 16.501 2.47871e-022 1.11631e-006 -1.27222e-014 27.6366 -3.42036 -27.071 -170.478 69.7213 -176.225 10.3021 38.6569 -40.215 -2.66559e-007 -1.27222e-014 -3.33285e-007 
-5.5845 17.4236 -8.92256 1.06223e-007 -6.54794 -2.18263e-006 -0.234562 2.61108 3.09697 -0.611113 5.20562 6.21428 -0.611115 5.20563 6.2143 -12.7278 -19.3115 -4.27374 -13.4448 -25.2046 6.80549 28.7174 14.9856 -91.44 55.6039 0.375546 32.98 7.58568 -72.498 71.1911 -21.9023 6.80633 -42.0801 -3.18055e-015 -9.14409e-015 3.18055e-015 7.1726e-032 -5.1684e-015 7.95139e-016 9.54166e-015 -4.77083e-015 2.38542e-015 -3.18055e-015 -9.14409e-015 3.18055e-015 -0.0128227 0.00231529 8.17041e-005 -3.18055e-015 1.98785e-015 -0 -3.18055e-015 -9.14409e-015 3.18055e-015 -0.0160217 0.00298038 0.000857434 3.18055e-015 1.98785e-015 -0 -3.18055e-015 -9.14409e-015 3.18055e-015 -0.012525 0.00309056 0.00281146 -3.18055e-015 -1.86858e-014 6.36111e-015 -3.18055e-015 -9.14409e-015 3.18055e-015 7.1726e-032 -5.1684e-015 7.95139e-016 9.54166e-015 -4.77083e-015 2.38542e-015 7.79513 -11.4977 21.2379 -21.9606 -13.1272 -14.0748 -11.4942 -37.293 -5.10025 54.8328 19.9647 15.3487 1.29024e-006 -1.02853e-007 -1.11847e-006 -1.5383e-006 -1.53853e-005 2.42548e-005 1.59028e-015 -3.57812e-015 -3.18055e-015 1.29024e-006 -1.02853e-007 -1.11847e-006 0.0129461 0.00228705 -6.57308e-005 3.97252e-031 -7.15625e-015 3.18055e-015 1.29024e-006 -1.02853e-007 -1.11847e-006 0.016342 0.00302271 -0.000864186 1.53072e-006 1.48166e-005 4.3804e-006 1.29024e-006 -1.02853e-007 -1.11847e-006 0.0145813 0.00369077 -0.00325253 1.87591e-031 -6.75868e-015 1.59028e-015 1.29024e-006 -1.02853e-007 -1.11847e-006 -1.5383e-006 -1.53853e-005 2.42548e-005 1.59028e-015 -3.57812e-015 -3.18055e-015 -86.8744 -39.2453 -107.195 -161.068 54.7706 149.411 10.6738 -31.0955 16.1869 -1.59028e-015 1.59028e-015 9.54166e-015 26.9566 -4.43901 -26.8948 -170.498 69.6825 -176.199 9.52851 39.0928 -39.7429 1.54661e-006 1.67591e-006 -6.74088e-007 
